G04 #@! TF.GenerationSoftware,KiCad,Pcbnew,(5.1.12-1-10_14)*
G04 #@! TF.CreationDate,2021-11-25T02:21:13-08:00*
G04 #@! TF.ProjectId,kicad-soft-latch-power-on,6b696361-642d-4736-9f66-742d6c617463,1*
G04 #@! TF.SameCoordinates,Original*
G04 #@! TF.FileFunction,Copper,L1,Top*
G04 #@! TF.FilePolarity,Positive*
%FSLAX46Y46*%
G04 Gerber Fmt 4.6, Leading zero omitted, Abs format (unit mm)*
G04 Created by KiCad (PCBNEW (5.1.12-1-10_14)) date 2021-11-25 02:21:13*
%MOMM*%
%LPD*%
G01*
G04 APERTURE LIST*
G04 #@! TA.AperFunction,SMDPad,CuDef*
%ADD10R,0.800000X0.900000*%
G04 #@! TD*
G04 #@! TA.AperFunction,ComponentPad*
%ADD11O,1.400000X1.400000*%
G04 #@! TD*
G04 #@! TA.AperFunction,ComponentPad*
%ADD12C,1.400000*%
G04 #@! TD*
G04 #@! TA.AperFunction,ComponentPad*
%ADD13O,1.700000X1.700000*%
G04 #@! TD*
G04 #@! TA.AperFunction,ComponentPad*
%ADD14R,1.700000X1.700000*%
G04 #@! TD*
G04 #@! TA.AperFunction,ComponentPad*
%ADD15C,1.700000*%
G04 #@! TD*
G04 #@! TA.AperFunction,ComponentPad*
%ADD16C,1.600000*%
G04 #@! TD*
G04 #@! TA.AperFunction,Conductor*
%ADD17C,0.508000*%
G04 #@! TD*
G04 APERTURE END LIST*
D10*
X133934200Y-114893600D03*
X132984200Y-112893600D03*
X134884200Y-112893600D03*
D11*
X130632200Y-111734600D03*
D12*
X130632200Y-106654600D03*
D11*
X136855200Y-114503200D03*
D12*
X141935200Y-114503200D03*
D11*
X140792200Y-106730800D03*
D12*
X140792200Y-111810800D03*
G04 #@! TA.AperFunction,SMDPad,CuDef*
G36*
G01*
X134212200Y-110340000D02*
X134212200Y-110640000D01*
G75*
G02*
X134062200Y-110790000I-150000J0D01*
G01*
X132412200Y-110790000D01*
G75*
G02*
X132262200Y-110640000I0J150000D01*
G01*
X132262200Y-110340000D01*
G75*
G02*
X132412200Y-110190000I150000J0D01*
G01*
X134062200Y-110190000D01*
G75*
G02*
X134212200Y-110340000I0J-150000D01*
G01*
G37*
G04 #@! TD.AperFunction*
G04 #@! TA.AperFunction,SMDPad,CuDef*
G36*
G01*
X134212200Y-109070000D02*
X134212200Y-109370000D01*
G75*
G02*
X134062200Y-109520000I-150000J0D01*
G01*
X132412200Y-109520000D01*
G75*
G02*
X132262200Y-109370000I0J150000D01*
G01*
X132262200Y-109070000D01*
G75*
G02*
X132412200Y-108920000I150000J0D01*
G01*
X134062200Y-108920000D01*
G75*
G02*
X134212200Y-109070000I0J-150000D01*
G01*
G37*
G04 #@! TD.AperFunction*
G04 #@! TA.AperFunction,SMDPad,CuDef*
G36*
G01*
X134212200Y-107800000D02*
X134212200Y-108100000D01*
G75*
G02*
X134062200Y-108250000I-150000J0D01*
G01*
X132412200Y-108250000D01*
G75*
G02*
X132262200Y-108100000I0J150000D01*
G01*
X132262200Y-107800000D01*
G75*
G02*
X132412200Y-107650000I150000J0D01*
G01*
X134062200Y-107650000D01*
G75*
G02*
X134212200Y-107800000I0J-150000D01*
G01*
G37*
G04 #@! TD.AperFunction*
G04 #@! TA.AperFunction,SMDPad,CuDef*
G36*
G01*
X134212200Y-106530000D02*
X134212200Y-106830000D01*
G75*
G02*
X134062200Y-106980000I-150000J0D01*
G01*
X132412200Y-106980000D01*
G75*
G02*
X132262200Y-106830000I0J150000D01*
G01*
X132262200Y-106530000D01*
G75*
G02*
X132412200Y-106380000I150000J0D01*
G01*
X134062200Y-106380000D01*
G75*
G02*
X134212200Y-106530000I0J-150000D01*
G01*
G37*
G04 #@! TD.AperFunction*
G04 #@! TA.AperFunction,SMDPad,CuDef*
G36*
G01*
X139162200Y-106530000D02*
X139162200Y-106830000D01*
G75*
G02*
X139012200Y-106980000I-150000J0D01*
G01*
X137362200Y-106980000D01*
G75*
G02*
X137212200Y-106830000I0J150000D01*
G01*
X137212200Y-106530000D01*
G75*
G02*
X137362200Y-106380000I150000J0D01*
G01*
X139012200Y-106380000D01*
G75*
G02*
X139162200Y-106530000I0J-150000D01*
G01*
G37*
G04 #@! TD.AperFunction*
G04 #@! TA.AperFunction,SMDPad,CuDef*
G36*
G01*
X139162200Y-107800000D02*
X139162200Y-108100000D01*
G75*
G02*
X139012200Y-108250000I-150000J0D01*
G01*
X137362200Y-108250000D01*
G75*
G02*
X137212200Y-108100000I0J150000D01*
G01*
X137212200Y-107800000D01*
G75*
G02*
X137362200Y-107650000I150000J0D01*
G01*
X139012200Y-107650000D01*
G75*
G02*
X139162200Y-107800000I0J-150000D01*
G01*
G37*
G04 #@! TD.AperFunction*
G04 #@! TA.AperFunction,SMDPad,CuDef*
G36*
G01*
X139162200Y-109070000D02*
X139162200Y-109370000D01*
G75*
G02*
X139012200Y-109520000I-150000J0D01*
G01*
X137362200Y-109520000D01*
G75*
G02*
X137212200Y-109370000I0J150000D01*
G01*
X137212200Y-109070000D01*
G75*
G02*
X137362200Y-108920000I150000J0D01*
G01*
X139012200Y-108920000D01*
G75*
G02*
X139162200Y-109070000I0J-150000D01*
G01*
G37*
G04 #@! TD.AperFunction*
G04 #@! TA.AperFunction,SMDPad,CuDef*
G36*
G01*
X139162200Y-110340000D02*
X139162200Y-110640000D01*
G75*
G02*
X139012200Y-110790000I-150000J0D01*
G01*
X137362200Y-110790000D01*
G75*
G02*
X137212200Y-110640000I0J150000D01*
G01*
X137212200Y-110340000D01*
G75*
G02*
X137362200Y-110190000I150000J0D01*
G01*
X139012200Y-110190000D01*
G75*
G02*
X139162200Y-110340000I0J-150000D01*
G01*
G37*
G04 #@! TD.AperFunction*
D13*
X144780000Y-114300000D03*
D14*
X144780000Y-111760000D03*
D15*
X144780000Y-109220000D03*
D13*
X124460000Y-114300000D03*
X124460000Y-111760000D03*
D14*
X124460000Y-109220000D03*
D16*
X127863600Y-111680000D03*
X127863600Y-106680000D03*
D17*
X133237200Y-110490000D02*
X133237200Y-109220000D01*
X135686800Y-106756200D02*
X135763000Y-106680000D01*
X135686800Y-108483400D02*
X135686800Y-106756200D01*
X134950200Y-109220000D02*
X135686800Y-108483400D01*
X135763000Y-106680000D02*
X138187200Y-106680000D01*
X133237200Y-109220000D02*
X134950200Y-109220000D01*
X130577600Y-111680000D02*
X130632200Y-111734600D01*
X127863600Y-111680000D02*
X130577600Y-111680000D01*
X130953000Y-112055400D02*
X130632200Y-111734600D01*
X133237200Y-112640600D02*
X132984200Y-112893600D01*
X133237200Y-110490000D02*
X133237200Y-112640600D01*
X130632200Y-111734600D02*
X131622800Y-112725200D01*
X132815800Y-112725200D02*
X132984200Y-112893600D01*
X131622800Y-112725200D02*
X132815800Y-112725200D01*
X124460000Y-106680000D02*
X127000000Y-106680000D01*
X127000000Y-106680000D02*
X129540000Y-106680000D01*
X129540000Y-106680000D02*
X133237200Y-106680000D01*
X133237200Y-107950000D02*
X133237200Y-106680000D01*
X124460000Y-109220000D02*
X124460000Y-106680000D01*
X127593600Y-114893600D02*
X133934200Y-114893600D01*
X124460000Y-111760000D02*
X127593600Y-114893600D01*
X136550400Y-109220000D02*
X138187200Y-109220000D01*
X135062000Y-110708400D02*
X136550400Y-109220000D01*
X140766800Y-114452400D02*
X140766800Y-111836200D01*
X140817600Y-114503200D02*
X140766800Y-114452400D01*
X140766800Y-111836200D02*
X140792200Y-111810800D01*
X141935200Y-114503200D02*
X140817600Y-114503200D01*
X139623800Y-109220000D02*
X138187200Y-109220000D01*
X140792200Y-110388400D02*
X139623800Y-109220000D01*
X140792200Y-111810800D02*
X140792200Y-110388400D01*
X135062000Y-112715800D02*
X134884200Y-112893600D01*
X135062000Y-110708400D02*
X135062000Y-112715800D01*
X137058400Y-116230400D02*
X124460000Y-116230400D01*
X144780000Y-115620800D02*
X144780000Y-114300000D01*
X144170400Y-116230400D02*
X144780000Y-115620800D01*
X137058400Y-116230400D02*
X144170400Y-116230400D01*
X124460000Y-116230400D02*
X124460000Y-114300000D01*
X138187200Y-114161800D02*
X137845800Y-114503200D01*
X137845800Y-114503200D02*
X136855200Y-114503200D01*
X138187200Y-110490000D02*
X138187200Y-114161800D01*
X136855200Y-116027200D02*
X137058400Y-116230400D01*
X136855200Y-114503200D02*
X136855200Y-116027200D01*
X139750800Y-107950000D02*
X143560800Y-111760000D01*
X143560800Y-111760000D02*
X144780000Y-111760000D01*
X138187200Y-107950000D02*
X139750800Y-107950000D01*
X144780000Y-106857800D02*
X144780000Y-109220000D01*
X144653000Y-106730800D02*
X144780000Y-106857800D01*
X140792200Y-106730800D02*
X144653000Y-106730800D01*
M02*
