G04 #@! TF.GenerationSoftware,KiCad,Pcbnew,(5.1.12-1-10_14)*
G04 #@! TF.CreationDate,2021-11-25T02:21:13-08:00*
G04 #@! TF.ProjectId,kicad-soft-latch-power-on,6b696361-642d-4736-9f66-742d6c617463,1*
G04 #@! TF.SameCoordinates,Original*
G04 #@! TF.FileFunction,Legend,Top*
G04 #@! TF.FilePolarity,Positive*
%FSLAX46Y46*%
G04 Gerber Fmt 4.6, Leading zero omitted, Abs format (unit mm)*
G04 Created by KiCad (PCBNEW (5.1.12-1-10_14)) date 2021-11-25 02:21:13*
%MOMM*%
%LPD*%
G01*
G04 APERTURE LIST*
%ADD10C,0.127000*%
%ADD11C,0.076200*%
%ADD12C,0.120000*%
%ADD13C,0.150000*%
%ADD14R,0.800000X0.900000*%
%ADD15O,1.400000X1.400000*%
%ADD16C,1.400000*%
%ADD17O,1.700000X1.700000*%
%ADD18R,1.700000X1.700000*%
%ADD19C,1.700000*%
%ADD20C,1.600000*%
G04 APERTURE END LIST*
D10*
X136763805Y-110464600D02*
G75*
G03*
X136763805Y-110464600I-289605J0D01*
G01*
D11*
X126441200Y-114471752D02*
X126465390Y-114423371D01*
X126465390Y-114350800D01*
X126441200Y-114278228D01*
X126392819Y-114229847D01*
X126344438Y-114205657D01*
X126247676Y-114181466D01*
X126175104Y-114181466D01*
X126078342Y-114205657D01*
X126029961Y-114229847D01*
X125981580Y-114278228D01*
X125957390Y-114350800D01*
X125957390Y-114399180D01*
X125981580Y-114471752D01*
X126005771Y-114495942D01*
X126175104Y-114495942D01*
X126175104Y-114399180D01*
X125957390Y-114713657D02*
X126465390Y-114713657D01*
X125957390Y-115003942D01*
X126465390Y-115003942D01*
X125957390Y-115245847D02*
X126465390Y-115245847D01*
X126465390Y-115366800D01*
X126441200Y-115439371D01*
X126392819Y-115487752D01*
X126344438Y-115511942D01*
X126247676Y-115536133D01*
X126175104Y-115536133D01*
X126078342Y-115511942D01*
X126029961Y-115487752D01*
X125981580Y-115439371D01*
X125957390Y-115366800D01*
X125957390Y-115245847D01*
X126274285Y-111997066D02*
X126250095Y-112069638D01*
X126225904Y-112093828D01*
X126177523Y-112118019D01*
X126104952Y-112118019D01*
X126056571Y-112093828D01*
X126032380Y-112069638D01*
X126008190Y-112021257D01*
X126008190Y-111827733D01*
X126516190Y-111827733D01*
X126516190Y-111997066D01*
X126492000Y-112045447D01*
X126467809Y-112069638D01*
X126419428Y-112093828D01*
X126371047Y-112093828D01*
X126322666Y-112069638D01*
X126298476Y-112045447D01*
X126274285Y-111997066D01*
X126274285Y-111827733D01*
X126516190Y-112263161D02*
X126516190Y-112553447D01*
X126008190Y-112408304D02*
X126516190Y-112408304D01*
X126008190Y-112722780D02*
X126516190Y-112722780D01*
X126008190Y-113013066D01*
X126516190Y-113013066D01*
X126262190Y-108317695D02*
X125754190Y-108487028D01*
X126262190Y-108656361D01*
X125705809Y-108704742D02*
X125705809Y-109091790D01*
X125754190Y-109212742D02*
X126262190Y-109212742D01*
X125754190Y-109454647D02*
X126262190Y-109454647D01*
X125754190Y-109744933D01*
X126262190Y-109744933D01*
X142671800Y-109677200D02*
X142647609Y-109725580D01*
X142647609Y-109798152D01*
X142671800Y-109870723D01*
X142720180Y-109919104D01*
X142768561Y-109943295D01*
X142865323Y-109967485D01*
X142937895Y-109967485D01*
X143034657Y-109943295D01*
X143083038Y-109919104D01*
X143131419Y-109870723D01*
X143155609Y-109798152D01*
X143155609Y-109749771D01*
X143131419Y-109677200D01*
X143107228Y-109653009D01*
X142937895Y-109653009D01*
X142937895Y-109749771D01*
X143155609Y-109435295D02*
X142647609Y-109435295D01*
X142647609Y-109241771D01*
X142671800Y-109193390D01*
X142695990Y-109169200D01*
X142744371Y-109145009D01*
X142816942Y-109145009D01*
X142865323Y-109169200D01*
X142889514Y-109193390D01*
X142913704Y-109241771D01*
X142913704Y-109435295D01*
X143155609Y-108927295D02*
X142647609Y-108927295D01*
X142647609Y-108588628D02*
X142647609Y-108491866D01*
X142671800Y-108443485D01*
X142720180Y-108395104D01*
X142816942Y-108370914D01*
X142986276Y-108370914D01*
X143083038Y-108395104D01*
X143131419Y-108443485D01*
X143155609Y-108491866D01*
X143155609Y-108588628D01*
X143131419Y-108637009D01*
X143083038Y-108685390D01*
X142986276Y-108709580D01*
X142816942Y-108709580D01*
X142720180Y-108685390D01*
X142671800Y-108637009D01*
X142647609Y-108588628D01*
X142647609Y-112797771D02*
X143155609Y-112628438D01*
X142647609Y-112459104D01*
X143203990Y-112410723D02*
X143203990Y-112023676D01*
X142647609Y-111805961D02*
X142647609Y-111709200D01*
X142671800Y-111660819D01*
X142720180Y-111612438D01*
X142816942Y-111588247D01*
X142986276Y-111588247D01*
X143083038Y-111612438D01*
X143131419Y-111660819D01*
X143155609Y-111709200D01*
X143155609Y-111805961D01*
X143131419Y-111854342D01*
X143083038Y-111902723D01*
X142986276Y-111926914D01*
X142816942Y-111926914D01*
X142720180Y-111902723D01*
X142671800Y-111854342D01*
X142647609Y-111805961D01*
X142647609Y-111370533D02*
X143058847Y-111370533D01*
X143107228Y-111346342D01*
X143131419Y-111322152D01*
X143155609Y-111273771D01*
X143155609Y-111177009D01*
X143131419Y-111128628D01*
X143107228Y-111104438D01*
X143058847Y-111080247D01*
X142647609Y-111080247D01*
X142647609Y-110910914D02*
X142647609Y-110620628D01*
X143155609Y-110765771D02*
X142647609Y-110765771D01*
X142798800Y-114814047D02*
X142774609Y-114862428D01*
X142774609Y-114935000D01*
X142798800Y-115007571D01*
X142847180Y-115055952D01*
X142895561Y-115080142D01*
X142992323Y-115104333D01*
X143064895Y-115104333D01*
X143161657Y-115080142D01*
X143210038Y-115055952D01*
X143258419Y-115007571D01*
X143282609Y-114935000D01*
X143282609Y-114886619D01*
X143258419Y-114814047D01*
X143234228Y-114789857D01*
X143064895Y-114789857D01*
X143064895Y-114886619D01*
X143282609Y-114572142D02*
X142774609Y-114572142D01*
X143282609Y-114281857D01*
X142774609Y-114281857D01*
X143282609Y-114039952D02*
X142774609Y-114039952D01*
X142774609Y-113919000D01*
X142798800Y-113846428D01*
X142847180Y-113798047D01*
X142895561Y-113773857D01*
X142992323Y-113749666D01*
X143064895Y-113749666D01*
X143161657Y-113773857D01*
X143210038Y-113798047D01*
X143258419Y-113846428D01*
X143282609Y-113919000D01*
X143282609Y-114039952D01*
D12*
X132354200Y-114653600D02*
X132354200Y-113193600D01*
X135514200Y-114653600D02*
X135514200Y-112493600D01*
X135514200Y-114653600D02*
X134584200Y-114653600D01*
X132354200Y-114653600D02*
X133284200Y-114653600D01*
X129712200Y-107274600D02*
X129712200Y-111114600D01*
X131552200Y-107274600D02*
X131552200Y-111114600D01*
X141315200Y-113583200D02*
X137475200Y-113583200D01*
X141315200Y-115423200D02*
X137475200Y-115423200D01*
X141712200Y-111190800D02*
X141712200Y-107350800D01*
X139872200Y-111190800D02*
X139872200Y-107350800D01*
X135712200Y-111145000D02*
X139162200Y-111145000D01*
X135712200Y-111145000D02*
X133762200Y-111145000D01*
X135712200Y-106025000D02*
X137662200Y-106025000D01*
X135712200Y-106025000D02*
X133762200Y-106025000D01*
X143450000Y-107890000D02*
X144780000Y-107890000D01*
X143450000Y-109220000D02*
X143450000Y-107890000D01*
X143450000Y-110490000D02*
X146110000Y-110490000D01*
X146110000Y-110490000D02*
X146110000Y-115630000D01*
X143450000Y-110490000D02*
X143450000Y-115630000D01*
X143450000Y-115630000D02*
X146110000Y-115630000D01*
X123130000Y-107890000D02*
X124460000Y-107890000D01*
X123130000Y-109220000D02*
X123130000Y-107890000D01*
X123130000Y-110490000D02*
X125790000Y-110490000D01*
X125790000Y-110490000D02*
X125790000Y-115630000D01*
X123130000Y-110490000D02*
X123130000Y-115630000D01*
X123130000Y-115630000D02*
X125790000Y-115630000D01*
X126808600Y-111650000D02*
X126493600Y-111650000D01*
X129233600Y-111650000D02*
X128918600Y-111650000D01*
X126808600Y-106710000D02*
X126493600Y-106710000D01*
X129233600Y-106710000D02*
X128918600Y-106710000D01*
X126493600Y-106710000D02*
X126493600Y-111650000D01*
X129233600Y-106710000D02*
X129233600Y-111650000D01*
D13*
X130249704Y-114320580D02*
X130249704Y-113320580D01*
X130487800Y-113320580D01*
X130630657Y-113368200D01*
X130725895Y-113463438D01*
X130773514Y-113558676D01*
X130821133Y-113749152D01*
X130821133Y-113892009D01*
X130773514Y-114082485D01*
X130725895Y-114177723D01*
X130630657Y-114272961D01*
X130487800Y-114320580D01*
X130249704Y-114320580D01*
X131773514Y-114320580D02*
X131202085Y-114320580D01*
X131487800Y-114320580D02*
X131487800Y-113320580D01*
X131392561Y-113463438D01*
X131297323Y-113558676D01*
X131202085Y-113606295D01*
X131160780Y-109386666D02*
X130684590Y-109720000D01*
X131160780Y-109958095D02*
X130160780Y-109958095D01*
X130160780Y-109577142D01*
X130208400Y-109481904D01*
X130256019Y-109434285D01*
X130351257Y-109386666D01*
X130494114Y-109386666D01*
X130589352Y-109434285D01*
X130636971Y-109481904D01*
X130684590Y-109577142D01*
X130684590Y-109958095D01*
X130160780Y-109053333D02*
X130160780Y-108434285D01*
X130541733Y-108767619D01*
X130541733Y-108624761D01*
X130589352Y-108529523D01*
X130636971Y-108481904D01*
X130732209Y-108434285D01*
X130970304Y-108434285D01*
X131065542Y-108481904D01*
X131113161Y-108529523D01*
X131160780Y-108624761D01*
X131160780Y-108910476D01*
X131113161Y-109005714D01*
X131065542Y-109053333D01*
X139355533Y-115107980D02*
X139022200Y-114631790D01*
X138784104Y-115107980D02*
X138784104Y-114107980D01*
X139165057Y-114107980D01*
X139260295Y-114155600D01*
X139307914Y-114203219D01*
X139355533Y-114298457D01*
X139355533Y-114441314D01*
X139307914Y-114536552D01*
X139260295Y-114584171D01*
X139165057Y-114631790D01*
X138784104Y-114631790D01*
X139736485Y-114203219D02*
X139784104Y-114155600D01*
X139879342Y-114107980D01*
X140117438Y-114107980D01*
X140212676Y-114155600D01*
X140260295Y-114203219D01*
X140307914Y-114298457D01*
X140307914Y-114393695D01*
X140260295Y-114536552D01*
X139688866Y-115107980D01*
X140307914Y-115107980D01*
X141269980Y-109412066D02*
X140793790Y-109745400D01*
X141269980Y-109983495D02*
X140269980Y-109983495D01*
X140269980Y-109602542D01*
X140317600Y-109507304D01*
X140365219Y-109459685D01*
X140460457Y-109412066D01*
X140603314Y-109412066D01*
X140698552Y-109459685D01*
X140746171Y-109507304D01*
X140793790Y-109602542D01*
X140793790Y-109983495D01*
X141269980Y-108459685D02*
X141269980Y-109031114D01*
X141269980Y-108745400D02*
X140269980Y-108745400D01*
X140412838Y-108840638D01*
X140508076Y-108935876D01*
X140555695Y-109031114D01*
X135718561Y-109234219D02*
X135623323Y-109186600D01*
X135528085Y-109091361D01*
X135385228Y-108948504D01*
X135289990Y-108900885D01*
X135194752Y-108900885D01*
X135242371Y-109138980D02*
X135147133Y-109091361D01*
X135051895Y-108996123D01*
X135004276Y-108805647D01*
X135004276Y-108472314D01*
X135051895Y-108281838D01*
X135147133Y-108186600D01*
X135242371Y-108138980D01*
X135432847Y-108138980D01*
X135528085Y-108186600D01*
X135623323Y-108281838D01*
X135670942Y-108472314D01*
X135670942Y-108805647D01*
X135623323Y-108996123D01*
X135528085Y-109091361D01*
X135432847Y-109138980D01*
X135242371Y-109138980D01*
X136623323Y-109138980D02*
X136051895Y-109138980D01*
X136337609Y-109138980D02*
X136337609Y-108138980D01*
X136242371Y-108281838D01*
X136147133Y-108377076D01*
X136051895Y-108424695D01*
X128246142Y-109361266D02*
X128293761Y-109408885D01*
X128341380Y-109551742D01*
X128341380Y-109646980D01*
X128293761Y-109789838D01*
X128198523Y-109885076D01*
X128103285Y-109932695D01*
X127912809Y-109980314D01*
X127769952Y-109980314D01*
X127579476Y-109932695D01*
X127484238Y-109885076D01*
X127389000Y-109789838D01*
X127341380Y-109646980D01*
X127341380Y-109551742D01*
X127389000Y-109408885D01*
X127436619Y-109361266D01*
X128341380Y-108408885D02*
X128341380Y-108980314D01*
X128341380Y-108694600D02*
X127341380Y-108694600D01*
X127484238Y-108789838D01*
X127579476Y-108885076D01*
X127627095Y-108980314D01*
%LPC*%
D14*
X133934200Y-114893600D03*
X132984200Y-112893600D03*
X134884200Y-112893600D03*
D15*
X130632200Y-111734600D03*
D16*
X130632200Y-106654600D03*
D15*
X136855200Y-114503200D03*
D16*
X141935200Y-114503200D03*
D15*
X140792200Y-106730800D03*
D16*
X140792200Y-111810800D03*
G36*
G01*
X134212200Y-110340000D02*
X134212200Y-110640000D01*
G75*
G02*
X134062200Y-110790000I-150000J0D01*
G01*
X132412200Y-110790000D01*
G75*
G02*
X132262200Y-110640000I0J150000D01*
G01*
X132262200Y-110340000D01*
G75*
G02*
X132412200Y-110190000I150000J0D01*
G01*
X134062200Y-110190000D01*
G75*
G02*
X134212200Y-110340000I0J-150000D01*
G01*
G37*
G36*
G01*
X134212200Y-109070000D02*
X134212200Y-109370000D01*
G75*
G02*
X134062200Y-109520000I-150000J0D01*
G01*
X132412200Y-109520000D01*
G75*
G02*
X132262200Y-109370000I0J150000D01*
G01*
X132262200Y-109070000D01*
G75*
G02*
X132412200Y-108920000I150000J0D01*
G01*
X134062200Y-108920000D01*
G75*
G02*
X134212200Y-109070000I0J-150000D01*
G01*
G37*
G36*
G01*
X134212200Y-107800000D02*
X134212200Y-108100000D01*
G75*
G02*
X134062200Y-108250000I-150000J0D01*
G01*
X132412200Y-108250000D01*
G75*
G02*
X132262200Y-108100000I0J150000D01*
G01*
X132262200Y-107800000D01*
G75*
G02*
X132412200Y-107650000I150000J0D01*
G01*
X134062200Y-107650000D01*
G75*
G02*
X134212200Y-107800000I0J-150000D01*
G01*
G37*
G36*
G01*
X134212200Y-106530000D02*
X134212200Y-106830000D01*
G75*
G02*
X134062200Y-106980000I-150000J0D01*
G01*
X132412200Y-106980000D01*
G75*
G02*
X132262200Y-106830000I0J150000D01*
G01*
X132262200Y-106530000D01*
G75*
G02*
X132412200Y-106380000I150000J0D01*
G01*
X134062200Y-106380000D01*
G75*
G02*
X134212200Y-106530000I0J-150000D01*
G01*
G37*
G36*
G01*
X139162200Y-106530000D02*
X139162200Y-106830000D01*
G75*
G02*
X139012200Y-106980000I-150000J0D01*
G01*
X137362200Y-106980000D01*
G75*
G02*
X137212200Y-106830000I0J150000D01*
G01*
X137212200Y-106530000D01*
G75*
G02*
X137362200Y-106380000I150000J0D01*
G01*
X139012200Y-106380000D01*
G75*
G02*
X139162200Y-106530000I0J-150000D01*
G01*
G37*
G36*
G01*
X139162200Y-107800000D02*
X139162200Y-108100000D01*
G75*
G02*
X139012200Y-108250000I-150000J0D01*
G01*
X137362200Y-108250000D01*
G75*
G02*
X137212200Y-108100000I0J150000D01*
G01*
X137212200Y-107800000D01*
G75*
G02*
X137362200Y-107650000I150000J0D01*
G01*
X139012200Y-107650000D01*
G75*
G02*
X139162200Y-107800000I0J-150000D01*
G01*
G37*
G36*
G01*
X139162200Y-109070000D02*
X139162200Y-109370000D01*
G75*
G02*
X139012200Y-109520000I-150000J0D01*
G01*
X137362200Y-109520000D01*
G75*
G02*
X137212200Y-109370000I0J150000D01*
G01*
X137212200Y-109070000D01*
G75*
G02*
X137362200Y-108920000I150000J0D01*
G01*
X139012200Y-108920000D01*
G75*
G02*
X139162200Y-109070000I0J-150000D01*
G01*
G37*
G36*
G01*
X139162200Y-110340000D02*
X139162200Y-110640000D01*
G75*
G02*
X139012200Y-110790000I-150000J0D01*
G01*
X137362200Y-110790000D01*
G75*
G02*
X137212200Y-110640000I0J150000D01*
G01*
X137212200Y-110340000D01*
G75*
G02*
X137362200Y-110190000I150000J0D01*
G01*
X139012200Y-110190000D01*
G75*
G02*
X139162200Y-110340000I0J-150000D01*
G01*
G37*
D17*
X144780000Y-114300000D03*
D18*
X144780000Y-111760000D03*
D19*
X144780000Y-109220000D03*
D17*
X124460000Y-114300000D03*
X124460000Y-111760000D03*
D18*
X124460000Y-109220000D03*
D20*
X127863600Y-111680000D03*
X127863600Y-106680000D03*
M02*
