G04 #@! TF.GenerationSoftware,KiCad,Pcbnew,(5.1.12-1-10_14)*
G04 #@! TF.CreationDate,2021-11-25T02:21:13-08:00*
G04 #@! TF.ProjectId,kicad-soft-latch-power-on,6b696361-642d-4736-9f66-742d6c617463,1*
G04 #@! TF.SameCoordinates,Original*
G04 #@! TF.FileFunction,Legend,Bot*
G04 #@! TF.FilePolarity,Positive*
%FSLAX46Y46*%
G04 Gerber Fmt 4.6, Leading zero omitted, Abs format (unit mm)*
G04 Created by KiCad (PCBNEW (5.1.12-1-10_14)) date 2021-11-25 02:21:13*
%MOMM*%
%LPD*%
G01*
G04 APERTURE LIST*
%ADD10C,0.254000*%
%ADD11O,1.400000X1.400000*%
%ADD12C,1.400000*%
%ADD13O,1.700000X1.700000*%
%ADD14R,1.700000X1.700000*%
%ADD15C,1.700000*%
%ADD16C,1.600000*%
G04 APERTURE END LIST*
D10*
X135371114Y-115814928D02*
X135371114Y-114290928D01*
X134500257Y-115814928D02*
X135153400Y-114944071D01*
X134500257Y-114290928D02*
X135371114Y-115161785D01*
X133847114Y-115814928D02*
X133847114Y-114290928D01*
X133339114Y-115379500D01*
X132831114Y-114290928D01*
X132831114Y-115814928D01*
X131452257Y-114290928D02*
X131742542Y-114290928D01*
X131887685Y-114363500D01*
X131960257Y-114436071D01*
X132105400Y-114653785D01*
X132177971Y-114944071D01*
X132177971Y-115524642D01*
X132105400Y-115669785D01*
X132032828Y-115742357D01*
X131887685Y-115814928D01*
X131597400Y-115814928D01*
X131452257Y-115742357D01*
X131379685Y-115669785D01*
X131307114Y-115524642D01*
X131307114Y-115161785D01*
X131379685Y-115016642D01*
X131452257Y-114944071D01*
X131597400Y-114871500D01*
X131887685Y-114871500D01*
X132032828Y-114944071D01*
X132105400Y-115016642D01*
X132177971Y-115161785D01*
X130145971Y-115016642D02*
X129928257Y-115089214D01*
X129855685Y-115161785D01*
X129783114Y-115306928D01*
X129783114Y-115524642D01*
X129855685Y-115669785D01*
X129928257Y-115742357D01*
X130073400Y-115814928D01*
X130653971Y-115814928D01*
X130653971Y-114290928D01*
X130145971Y-114290928D01*
X130000828Y-114363500D01*
X129928257Y-114436071D01*
X129855685Y-114581214D01*
X129855685Y-114726357D01*
X129928257Y-114871500D01*
X130000828Y-114944071D01*
X130145971Y-115016642D01*
X130653971Y-115016642D01*
X129202542Y-115742357D02*
X128984828Y-115814928D01*
X128621971Y-115814928D01*
X128476828Y-115742357D01*
X128404257Y-115669785D01*
X128331685Y-115524642D01*
X128331685Y-115379500D01*
X128404257Y-115234357D01*
X128476828Y-115161785D01*
X128621971Y-115089214D01*
X128912257Y-115016642D01*
X129057400Y-114944071D01*
X129129971Y-114871500D01*
X129202542Y-114726357D01*
X129202542Y-114581214D01*
X129129971Y-114436071D01*
X129057400Y-114363500D01*
X128912257Y-114290928D01*
X128549400Y-114290928D01*
X128331685Y-114363500D01*
X126662542Y-115960071D02*
X126807685Y-115887500D01*
X126952828Y-115742357D01*
X127170542Y-115524642D01*
X127315685Y-115452071D01*
X127460828Y-115452071D01*
X127388257Y-115814928D02*
X127533400Y-115742357D01*
X127678542Y-115597214D01*
X127751114Y-115306928D01*
X127751114Y-114798928D01*
X127678542Y-114508642D01*
X127533400Y-114363500D01*
X127388257Y-114290928D01*
X127097971Y-114290928D01*
X126952828Y-114363500D01*
X126807685Y-114508642D01*
X126735114Y-114798928D01*
X126735114Y-115306928D01*
X126807685Y-115597214D01*
X126952828Y-115742357D01*
X127097971Y-115814928D01*
X127388257Y-115814928D01*
X141461671Y-109455857D02*
X141316528Y-109528428D01*
X141026242Y-109528428D01*
X140881100Y-109455857D01*
X140808528Y-109310714D01*
X140808528Y-109238142D01*
X140881100Y-109093000D01*
X141026242Y-109020428D01*
X141243957Y-109020428D01*
X141389100Y-108947857D01*
X141461671Y-108802714D01*
X141461671Y-108730142D01*
X141389100Y-108585000D01*
X141243957Y-108512428D01*
X141026242Y-108512428D01*
X140881100Y-108585000D01*
X139937671Y-109528428D02*
X140082814Y-109455857D01*
X140155385Y-109383285D01*
X140227957Y-109238142D01*
X140227957Y-108802714D01*
X140155385Y-108657571D01*
X140082814Y-108585000D01*
X139937671Y-108512428D01*
X139719957Y-108512428D01*
X139574814Y-108585000D01*
X139502242Y-108657571D01*
X139429671Y-108802714D01*
X139429671Y-109238142D01*
X139502242Y-109383285D01*
X139574814Y-109455857D01*
X139719957Y-109528428D01*
X139937671Y-109528428D01*
X138994242Y-108512428D02*
X138413671Y-108512428D01*
X138776528Y-109528428D02*
X138776528Y-108222142D01*
X138703957Y-108077000D01*
X138558814Y-108004428D01*
X138413671Y-108004428D01*
X138123385Y-108512428D02*
X137542814Y-108512428D01*
X137905671Y-108004428D02*
X137905671Y-109310714D01*
X137833100Y-109455857D01*
X137687957Y-109528428D01*
X137542814Y-109528428D01*
X135655957Y-109528428D02*
X135801100Y-109455857D01*
X135873671Y-109310714D01*
X135873671Y-108004428D01*
X134422242Y-109528428D02*
X134422242Y-108730142D01*
X134494814Y-108585000D01*
X134639957Y-108512428D01*
X134930242Y-108512428D01*
X135075385Y-108585000D01*
X134422242Y-109455857D02*
X134567385Y-109528428D01*
X134930242Y-109528428D01*
X135075385Y-109455857D01*
X135147957Y-109310714D01*
X135147957Y-109165571D01*
X135075385Y-109020428D01*
X134930242Y-108947857D01*
X134567385Y-108947857D01*
X134422242Y-108875285D01*
X133914242Y-108512428D02*
X133333671Y-108512428D01*
X133696528Y-108004428D02*
X133696528Y-109310714D01*
X133623957Y-109455857D01*
X133478814Y-109528428D01*
X133333671Y-109528428D01*
X132172528Y-109455857D02*
X132317671Y-109528428D01*
X132607957Y-109528428D01*
X132753100Y-109455857D01*
X132825671Y-109383285D01*
X132898242Y-109238142D01*
X132898242Y-108802714D01*
X132825671Y-108657571D01*
X132753100Y-108585000D01*
X132607957Y-108512428D01*
X132317671Y-108512428D01*
X132172528Y-108585000D01*
X131519385Y-109528428D02*
X131519385Y-108004428D01*
X130866242Y-109528428D02*
X130866242Y-108730142D01*
X130938814Y-108585000D01*
X131083957Y-108512428D01*
X131301671Y-108512428D01*
X131446814Y-108585000D01*
X131519385Y-108657571D01*
X139429671Y-112068428D02*
X139574814Y-111995857D01*
X139647385Y-111923285D01*
X139719957Y-111778142D01*
X139719957Y-111342714D01*
X139647385Y-111197571D01*
X139574814Y-111125000D01*
X139429671Y-111052428D01*
X139211957Y-111052428D01*
X139066814Y-111125000D01*
X138994242Y-111197571D01*
X138921671Y-111342714D01*
X138921671Y-111778142D01*
X138994242Y-111923285D01*
X139066814Y-111995857D01*
X139211957Y-112068428D01*
X139429671Y-112068428D01*
X138268528Y-111052428D02*
X138268528Y-112068428D01*
X138268528Y-111197571D02*
X138195957Y-111125000D01*
X138050814Y-111052428D01*
X137833100Y-111052428D01*
X137687957Y-111125000D01*
X137615385Y-111270142D01*
X137615385Y-112068428D01*
X136889671Y-111487857D02*
X135728528Y-111487857D01*
X134785100Y-112068428D02*
X134930242Y-111995857D01*
X135002814Y-111923285D01*
X135075385Y-111778142D01*
X135075385Y-111342714D01*
X135002814Y-111197571D01*
X134930242Y-111125000D01*
X134785100Y-111052428D01*
X134567385Y-111052428D01*
X134422242Y-111125000D01*
X134349671Y-111197571D01*
X134277100Y-111342714D01*
X134277100Y-111778142D01*
X134349671Y-111923285D01*
X134422242Y-111995857D01*
X134567385Y-112068428D01*
X134785100Y-112068428D01*
X133841671Y-111052428D02*
X133261100Y-111052428D01*
X133623957Y-112068428D02*
X133623957Y-110762142D01*
X133551385Y-110617000D01*
X133406242Y-110544428D01*
X133261100Y-110544428D01*
X132970814Y-111052428D02*
X132390242Y-111052428D01*
X132753100Y-112068428D02*
X132753100Y-110762142D01*
X132680528Y-110617000D01*
X132535385Y-110544428D01*
X132390242Y-110544428D01*
%LPC*%
D11*
X130632200Y-111734600D03*
D12*
X130632200Y-106654600D03*
D11*
X136855200Y-114503200D03*
D12*
X141935200Y-114503200D03*
D11*
X140792200Y-106730800D03*
D12*
X140792200Y-111810800D03*
D13*
X144780000Y-114300000D03*
D14*
X144780000Y-111760000D03*
D15*
X144780000Y-109220000D03*
D13*
X124460000Y-114300000D03*
X124460000Y-111760000D03*
D14*
X124460000Y-109220000D03*
D16*
X127863600Y-111680000D03*
X127863600Y-106680000D03*
M02*
